<svg id="Layer_1" data-name="Layer 1" xmlns="http://www.w3.org/2000/svg" viewBox="0 0 619.5771 113.8345">
  <defs>
    <style>
      .cls-1 {
        fill: #40A6E4;
      }
    </style>
  </defs>
  <title>napsto-white</title>
  <g>
    <g>
      <path class="cls-1" d="M86.3237,115.4307a5.037,5.037,0,0,1-3.7158-1.502A18.76,18.76,0,0,1,80,110.6875L28.6157,33.375v77.7871a4.3188,4.3188,0,0,1-4.2686,4.2686H17.8647a4.32,4.32,0,0,1-4.269-4.2686V9.0269a4.1033,4.1033,0,0,1,1.2651-3.0039,4.1029,4.1029,0,0,1,3.0039-1.2646h5.5337A5.0539,5.0539,0,0,1,27.1138,6.26a19.1921,19.1921,0,0,1,2.6089,3.2412L81.106,86.8135V9.0269a4.1015,4.1015,0,0,1,1.2651-3.0039A4.1029,4.1029,0,0,1,85.375,4.7583h6.4819a4.1126,4.1126,0,0,1,3.0044,1.2646A4.1123,4.1123,0,0,1,96.126,9.0269V111.1621a4.3188,4.3188,0,0,1-4.269,4.2686Z" transform="translate(-13.5957 -3.1772)"/>
      <path class="cls-1" d="M187.6655,90.45H132.8037l-8.2212,21.0283a8.02,8.02,0,0,1-1.7393,2.6084q-1.2671,1.3447-4.4268,1.3438h-5.85a3.508,3.508,0,0,1-3.478-3.4785,5.9658,5.9658,0,0,1,.6323-2.2129L148.4561,9.9756a13.61,13.61,0,0,1,2.3716-3.478,6.09,6.09,0,0,1,4.7432-1.7393h9.4858A6.0971,6.0971,0,0,1,169.8,6.4976a13.7114,13.7114,0,0,1,2.3716,3.478l38.5776,99.7637a6.0139,6.0139,0,0,1,.6323,2.2129,3.5088,3.5088,0,0,1-3.4785,3.4785h-5.85q-3.1648,0-4.4272-1.3437a7.9707,7.9707,0,0,1-1.7388-2.6084ZM138.3374,76.2207h43.7944L160.314,19.7778Z" transform="translate(-13.5957 -3.1772)"/>
      <path class="cls-1" d="M268.6133,4.7583a52.77,52.77,0,0,1,14.6245,1.9761,34.923,34.923,0,0,1,12.0947,6.0869,29.5621,29.5621,0,0,1,8.3,10.4351,33.9539,33.9539,0,0,1,3.083,15.02,34.4608,34.4608,0,0,1-3.083,15.0986,30.8775,30.8775,0,0,1-8.3,10.6719,34.4073,34.4073,0,0,1-12.0947,6.3242,50.8025,50.8025,0,0,1-14.6245,2.0557H239.522v38.7354a4.3188,4.3188,0,0,1-4.2686,4.2686H228.771a4.32,4.32,0,0,1-4.269-4.2686V9.0269a4.1033,4.1033,0,0,1,1.2651-3.0039,4.1029,4.1029,0,0,1,3.0039-1.2646ZM239.522,58.1973h28.3008q11.3833,0,17.6284-4.9014,6.2439-4.8984,6.2451-15.02,0-10.1162-6.2451-14.7036-6.2476-4.5842-17.6284-4.5854H239.522Z" transform="translate(-13.5957 -3.1772)"/>
      <path class="cls-1" d="M356.5186,3.1772a44.716,44.716,0,0,1,16.9961,3.0039,46.2866,46.2866,0,0,1,12.49,7.3521,32.7435,32.7435,0,0,1,7.8262,9.3281,21.0459,21.0459,0,0,1,2.8457,8.9326,2.7813,2.7813,0,0,1-.9482,2.4507,3.6072,3.6072,0,0,1-2.5293,1.0273h-6.4824A5.23,5.23,0,0,1,383.95,34.64a6.9643,6.9643,0,0,1-2.1348-2.8457,29.5762,29.5762,0,0,0-2.6084-4.0317,23.547,23.547,0,0,0-4.9014-4.7432,30.5548,30.5548,0,0,0-7.51-3.9526,29.2079,29.2079,0,0,0-10.2773-1.66,34.1582,34.1582,0,0,0-8.458,1.0273,24.0182,24.0182,0,0,0-7.1943,3.083,16.2159,16.2159,0,0,0-5.0586,5.1387,13.4413,13.4413,0,0,0-1.8975,7.1934,12.6492,12.6492,0,0,0,1.8184,6.9565,16.2465,16.2465,0,0,0,5.85,5.1387,51.4,51.4,0,0,0,10.1973,4.1895q6.167,1.8977,15.0205,4.269A96.3669,96.3669,0,0,1,382.0527,59.62,39.8836,39.8836,0,0,1,392.25,66.0234a21.49,21.49,0,0,1,5.7705,8.2217,28.7854,28.7854,0,0,1,1.8184,10.5137,27.8359,27.8359,0,0,1-3.083,13.043A30.6357,30.6357,0,0,1,388.14,108a41.2162,41.2162,0,0,1-13.36,6.6406,60.1555,60.1555,0,0,1-17.47,2.3711,51.3079,51.3079,0,0,1-16.917-2.6875,46.4841,46.4841,0,0,1-13.2812-6.957,36.0738,36.0738,0,0,1-8.7744-9.4863,20.628,20.628,0,0,1-3.3994-10.2764,3.51,3.51,0,0,1,3.4785-3.4785h6.4824a5.8207,5.8207,0,0,1,2.7666.6328A5.58,5.58,0,0,1,329.8,87.6045a23.3985,23.3985,0,0,0,2.9248,4.8223,22.7839,22.7839,0,0,0,5.2959,4.9014,31.7807,31.7807,0,0,0,8.0635,3.873,35.5831,35.5831,0,0,0,11.2256,1.5811,42.4992,42.4992,0,0,0,10.5137-1.2646,30.68,30.68,0,0,0,8.7744-3.6367,19.485,19.485,0,0,0,6.0078-5.6914,13.0968,13.0968,0,0,0,2.2139-7.4307,10.4072,10.4072,0,0,0-2.5293-7.0361,23.2178,23.2178,0,0,0-7.2734-5.2959,68.6591,68.6591,0,0,0-11.62-4.3477q-6.8774-1.9761-15.5732-4.19a62.28,62.28,0,0,1-13.4385-4.98,32.8877,32.8877,0,0,1-9.0127-6.7187,22.81,22.81,0,0,1-4.9795-8.38,31.7694,31.7694,0,0,1-1.502-9.96,28.64,28.64,0,0,1,2.3711-11.3833,28.3209,28.3209,0,0,1,7.0352-9.8022,35.2088,35.2088,0,0,1,11.7-6.8774A47.464,47.464,0,0,1,356.5186,3.1772Z" transform="translate(-13.5957 -3.1772)"/>
      <path class="cls-1" d="M484.1074,4.7583a4.1115,4.1115,0,0,1,3.0039,1.2646,4.11,4.11,0,0,1,1.2646,3.0039v5.6919a4.3188,4.3188,0,0,1-4.2686,4.2686H454.542v92.1748a4.3188,4.3188,0,0,1-4.2686,4.2686H443.791a4.3188,4.3188,0,0,1-4.2686-4.2686V18.9873H409.957a4.3188,4.3188,0,0,1-4.2686-4.2686V9.0269a4.1029,4.1029,0,0,1,1.2646-3.0039,4.1021,4.1021,0,0,1,3.0039-1.2646Z" transform="translate(-13.5957 -3.1772)"/>
      <path class="cls-1" d="M495.6465,46.0234a49.7344,49.7344,0,0,1,3.083-16.68,39.2324,39.2324,0,0,1,8.458-13.5967,40.2019,40.2019,0,0,1,13.5977-9.17,52.0286,52.0286,0,0,1,36.9961,0,40.2265,40.2265,0,0,1,13.5967,9.17,39.3071,39.3071,0,0,1,8.459,13.5967,49.9045,49.9045,0,0,1,3.083,16.68q.4731,14.0735,0,28.1426a52.7672,52.7672,0,0,1-3.2412,16.68,40.1111,40.1111,0,0,1-8.459,13.6758,38.8878,38.8878,0,0,1-13.5176,9.17,52.7484,52.7484,0,0,1-36.8379,0,38.8465,38.8465,0,0,1-13.5186-9.17,40.0339,40.0339,0,0,1-8.458-13.6758,52.6046,52.6046,0,0,1-3.2412-16.68Q495.1719,60.0962,495.6465,46.0234Zm72.2529.7905a40.877,40.877,0,0,0-2.45-12.9648,24.8973,24.8973,0,0,0-5.9287-9.17,24.6381,24.6381,0,0,0-8.9336-5.4546,36.0558,36.0558,0,0,0-22.6084,0,24.61,24.61,0,0,0-8.9326,5.4546,25.7081,25.7081,0,0,0-6.0078,9.17A36.858,36.858,0,0,0,510.666,46.814q-.3179,7.114-.3164,13.2808t.3164,13.28A36.8345,36.8345,0,0,0,513.0381,86.34a25.6694,25.6694,0,0,0,6.0078,9.17,24.5353,24.5353,0,0,0,8.9326,5.4541,36.0466,36.0466,0,0,0,22.6084,0,24.5637,24.5637,0,0,0,8.9336-5.4541,24.8611,24.8611,0,0,0,5.9287-9.17,40.8474,40.8474,0,0,0,2.45-12.9648q.3149-7.1147.3164-13.28T567.8994,46.814Z" transform="translate(-13.5957 -3.1772)"/>
    </g>
    <g>
      <path class="cls-1" d="M608.2461,7.3794a.9.9,0,0,1,.8877.8882V9.4512a.9.9,0,0,1-.8877.8882h-6.15V29.5122a.8979.8979,0,0,1-.8877.8877h-1.3486a.8979.8979,0,0,1-.8877-.8877V10.3394h-6.1494a.8979.8979,0,0,1-.8877-.8882V8.2676a.8979.8979,0,0,1,.8877-.8882Z" transform="translate(-13.5957 -3.1772)"/>
      <path class="cls-1" d="M622.9453,21.2905l6.6436-12.8584a2.6065,2.6065,0,0,1,.542-.7236,1.2591,1.2591,0,0,1,.9043-.3291h1.25a.8979.8979,0,0,1,.8877.8882V29.5122a.8979.8979,0,0,1-.8877.8877h-1.3486a.8979.8979,0,0,1-.8877-.8877V13.9238l-5.13,9.8989a3.0044,3.0044,0,0,1-.56.7729,1.1006,1.1006,0,0,1-.7891.2793h-1.25a1.1022,1.1022,0,0,1-.7891-.2793,2.98,2.98,0,0,1-.5586-.7729l-5.1309-9.8989V29.5122a.8979.8979,0,0,1-.8877.8877h-1.3486a.8979.8979,0,0,1-.8877-.8877V8.2676a.8979.8979,0,0,1,.8877-.8882h1.25a1.2607,1.2607,0,0,1,.9043.3291,2.61,2.61,0,0,1,.543.7236Z" transform="translate(-13.5957 -3.1772)"/>
    </g>
  </g>
</svg>
